<svg width="589" height="114" viewBox="0 0 589 114" fill="none" xmlns="http://www.w3.org/2000/svg">
<path d="M191.125 114C183.355 114 176.532 112.369 170.654 109.108C164.777 105.847 160.195 101.351 156.907 95.6195C153.62 89.7891 151.977 83.1188 151.977 75.6085C151.977 68.5924 153.172 62.2679 155.563 56.6352C158.053 51.0025 161.39 46.1604 165.574 42.1088C169.857 38.0572 174.738 34.9444 180.217 32.7703C185.796 30.5963 191.623 29.5093 197.7 29.5093C203.876 29.5093 209.305 30.6951 213.987 33.0668C218.668 35.3396 222.304 38.5019 224.894 42.5535L219.814 46.7039L226.239 0.0117188H248.951L233.113 112.221H212.044L213.987 97.3982L218.768 100.807C215.78 105.254 211.795 108.565 206.814 110.739C201.933 112.913 196.703 114 191.125 114ZM194.412 93.9889C198.995 93.9889 202.979 92.9019 206.366 90.7279C209.753 88.4551 212.393 85.4411 214.285 81.6859C216.178 77.9308 217.124 73.731 217.124 69.0865C217.124 65.3313 216.327 61.9715 214.734 59.0069C213.239 56.0423 211.098 53.72 208.309 52.0401C205.619 50.3602 202.381 49.5202 198.596 49.5202C194.113 49.5202 190.079 50.6072 186.493 52.7813C183.006 54.9553 180.267 57.9199 178.275 61.675C176.282 65.3313 175.286 69.5312 175.286 74.2745C175.286 78.1284 176.083 81.5377 177.677 84.5023C179.271 87.4669 181.512 89.7891 184.401 91.469C187.29 93.149 190.627 93.9889 194.412 93.9889Z" fill="white"/>
<path d="M276.586 114C271.107 114 266.326 113.16 262.242 111.48C258.157 109.8 254.97 107.33 252.679 104.069C250.487 100.709 249.391 96.6571 249.391 91.9137C249.391 86.5775 250.736 82.0812 253.426 78.4249C256.215 74.6698 259.95 71.6558 264.632 69.3829C269.414 67.1101 274.793 65.529 280.77 64.6396L306.47 60.6374L304.827 76.9426L283.908 80.7966C280.82 81.3895 278.13 82.4765 275.839 84.0576C273.647 85.5399 272.552 87.7139 272.552 90.5797C272.552 93.0502 273.448 94.8783 275.241 96.0641C277.034 97.1512 279.325 97.6947 282.115 97.6947C285.8 97.6947 289.038 96.8547 291.827 95.1748C294.716 93.4948 297.057 91.2714 298.85 88.5045C300.743 85.7375 301.888 82.7235 302.287 79.4625L305.126 58.8587C305.424 56.5858 305.026 54.6588 303.93 53.0777C302.834 51.4966 301.29 50.2614 299.298 49.372C297.306 48.4826 295.114 48.0379 292.724 48.0379C288.44 48.0379 284.605 49.2238 281.218 51.5954C277.831 53.8683 275.291 56.7834 273.598 60.3409L256.265 51.0025C258.357 46.4568 261.295 42.6029 265.081 39.4406C268.866 36.2784 273.249 33.8574 278.23 32.1774C283.21 30.3987 288.49 29.5093 294.068 29.5093C300.942 29.5093 307.018 30.794 312.298 33.3633C317.677 35.9326 321.761 39.4901 324.55 44.0357C327.439 48.5814 328.435 53.8683 327.539 59.8963L320.217 112.221H299.149L300.942 99.177L306.919 98.7323C304.129 102.29 301.191 105.205 298.103 107.478C295.015 109.751 291.678 111.381 288.092 112.369C284.605 113.456 280.77 114 276.586 114Z" fill="white"/>
<path d="M369.826 114C363.949 114 358.52 113.012 353.539 111.035C348.658 109.059 344.574 106.292 341.287 102.734C338 99.177 335.808 95.0266 334.712 90.2832L351.597 83.4647C353.29 87.7139 355.731 91.0244 358.919 93.396C362.206 95.7677 366.041 96.9535 370.424 96.9535C374.11 96.9535 376.849 96.2124 378.642 94.7301C380.535 93.2478 381.481 91.469 381.481 89.3938C381.481 87.2198 380.684 85.6881 379.09 84.7987C377.497 83.8105 376.002 83.1188 374.608 82.7235L361.01 78.8696C355.034 77.1896 350.402 74.4227 347.114 70.5687C343.927 66.616 342.333 61.9221 342.333 56.487C342.333 51.2496 343.727 46.605 346.517 42.5535C349.405 38.5019 353.34 35.3396 358.321 33.0668C363.302 30.6951 368.93 29.5093 375.206 29.5093C383.374 29.5093 390.297 31.4363 395.975 35.2902C401.753 39.1442 405.588 44.431 407.481 51.1507L390.297 57.9693C389.6 54.7082 387.707 52.1389 384.619 50.2614C381.531 48.285 378.144 47.2968 374.458 47.2968C371.37 47.2968 368.83 47.9391 366.838 49.2238C364.945 50.4096 363.999 52.1389 363.999 54.4118C363.999 56.5858 364.846 58.1669 366.539 59.1551C368.233 60.1433 369.976 60.8844 371.769 61.3785L384.32 65.2325C390.496 67.1101 395.178 69.9264 398.366 73.6816C401.653 77.4367 403.297 81.933 403.297 87.1704C403.297 92.2102 401.852 96.7559 398.964 100.807C396.174 104.859 392.24 108.071 387.159 110.442C382.179 112.814 376.401 114 369.826 114Z" fill="white"/>
<path d="M413.117 112.221L428.955 0.0117188H451.219L444.645 47.2968L442.403 43.1464C444.993 38.3042 448.43 34.8455 452.713 32.7703C457.096 30.5963 462.027 29.5093 467.506 29.5093C473.782 29.5093 479.111 30.9916 483.494 33.9562C487.877 36.8219 491.065 40.7253 493.057 45.6663C495.149 50.6072 495.747 56.1411 494.85 62.2679L487.827 112.221H465.414L471.989 64.936C472.686 60.2915 471.839 56.5858 469.449 53.8189C467.058 50.9531 463.671 49.5202 459.288 49.5202C456.399 49.5202 453.71 50.1626 451.219 51.4472C448.828 52.7319 446.836 54.5106 445.242 56.7834C443.648 59.0563 442.602 61.7738 442.104 64.936L435.53 112.221H413.117Z" fill="white"/>
<path d="M540.22 114C533.844 114 527.867 112.863 522.289 110.591C516.81 108.219 512.228 104.908 508.542 100.659C504.956 96.41 502.814 91.4196 502.117 85.6881L523.335 78.8696C524.431 83.6129 526.523 87.2198 529.611 89.6903C532.699 92.062 536.484 93.2478 540.967 93.2478C544.852 93.2478 548.239 92.4572 551.127 90.8761C554.116 89.1962 556.457 86.9728 558.15 84.2058C559.844 81.4389 560.69 78.2767 560.69 74.7192C560.69 71.6558 560.043 69.037 558.748 66.863C557.453 64.689 555.61 63.0585 553.219 61.9715C550.829 60.7856 547.89 60.1927 544.403 60.1927C542.212 60.1927 539.971 60.4398 537.679 60.9339C535.488 61.428 533.446 62.1197 531.553 63.0091L527.369 51.8919L559.196 21.0602H515.416L517.956 1.79046H588.931L586.54 19.578L553.966 52.633L554.265 43.2946C560.441 43.2946 565.721 44.6287 570.104 47.2968C574.587 49.8661 578.023 53.473 580.414 58.1175C582.904 62.762 584.15 68.0489 584.15 73.978C584.15 79.9072 582.954 85.3422 580.563 90.2832C578.173 95.2242 574.885 99.4734 570.702 103.031C566.617 106.49 561.936 109.207 556.656 111.184C551.476 113.061 545.997 114 540.22 114Z" fill="white"/>
<path d="M0.000793457 113.995H88.0478L113.989 88.0543H25.9419L0.000793457 113.995Z" fill="#5AE28C"/>
<path d="M-5.53131e-05 25.9484V113.995L25.941 88.0543V0.00726318L-5.53131e-05 25.9484Z" fill="#4AC878"/>
<path d="M113.989 0H25.9424L0.00134277 25.9411H88.0483L113.989 0Z" fill="#2A7B48"/>
<path d="M113.99 88.047V0L88.0492 25.9411V113.988L113.99 88.047Z" fill="#43A065"/>
</svg>
